<?xml version="1.0" encoding="UTF-8" standalone="no"?>
<svg
   xmlns:dc="http://purl.org/dc/elements/1.1/"
   xmlns:cc="http://creativecommons.org/ns#"
   xmlns:rdf="http://www.w3.org/1999/02/22-rdf-syntax-ns#"
   xmlns:svg="http://www.w3.org/2000/svg"
   xmlns="http://www.w3.org/2000/svg"
   version="1.1"
   id="svg2"
   viewBox="0 0 1062.9921 1062.9921"
   height="300mm"
   width="300mm">
  <defs
     id="defs4" />
  <metadata
     id="metadata7">
    <rdf:RDF>
      <cc:Work
         rdf:about="">
        <dc:format>image/svg+xml</dc:format>
        <dc:type
           rdf:resource="http://purl.org/dc/dcmitype/StillImage" />
        <dc:title></dc:title>
      </cc:Work>
    </rdf:RDF>
  </metadata>
  <g
     transform="translate(0,10.629921)"
     id="layer1">
    <g
       id="g3399">
      <path
         id="path3394"
         d="m 1011.2129,-2.436562 c -2.9723,0.198206 -8.4748,3.222231 -17.418,7.875 C 974.1128,15.67817 967.4748,22.01465 867.5078,126.0068 767.4075,230.13767 761.5903,235.69022 754.1172,234.23336 c -4.3324,-0.84459 -13.9532,-2.2198 -21.3809,-3.05664 l -13.5058,-1.52148 -28.7324,24.4414 -28.7325,24.44336 0,12.95508 0,12.95703 -25.4492,10.07227 c -15.3253,6.06564 -26.3603,9.0867 -27.7344,7.59375 -1.2551,-1.36363 -31.8964,-35.93556 -68.0937,-76.82617 l -65.8145,-74.34571 0,-43.92187 0,-43.92383 -8.0175,0 c -7.1927,0 -8.0196,-0.85578 -8.0196,-8.32227 0,-10.75162 -24.2003,-39.78711 -33.1621,-39.78711 -7.5691,0 -14.2426,-5.20798 -15.4121,-12.02734 -1.3684,-7.979496 -21.2059,-8.944296 -30.6797,-1.49219 -3.8467,3.02587 -8.1506,5.50196 -9.5644,5.50196 -1.4139,0 -12.7195,-6.61611 -25.1231,-14.701177 -16.4095,-10.696292 -25.0896,-14.699219 -31.8711,-14.699219 -14.9774,0 -16.2301,6.316278 -9.5195,48.029296 3.1123,19.34569 5.6582,36.28284 5.6582,37.63867 0,1.35589 -8.4189,6.70474 -18.709,11.88672 -10.2901,5.18204 -18.736,10.30856 -18.7734,11.39258 -0.1189,3.59452 40.9147,148.93949 42.5547,150.73242 0.8851,0.96775 16.5144,-1.16725 34.7304,-4.74414 18.2161,-3.57684 33.3414,-6.1717 33.6114,-5.76758 0.2697,0.40412 3.8405,19.37692 7.9355,42.16211 4.095,22.78519 9.3305,44.43435 11.6348,48.10938 2.3042,3.67503 11.357,15.02312 20.1172,25.21875 l 15.9277,18.53711 -1.8184,-38.58203 c -0.9995,-21.22073 -2.4942,-42.03331 -3.3222,-46.25 -2.22,-11.30455 3.9852,-7.9913 14.3125,7.64257 7.1647,10.84966 8.3456,14.76245 7.1914,23.87305 -1.3507,10.66123 -1.0878,11.08461 12.1426,19.60352 l 13.5214,8.70703 0.17,28.71094 0.1718,28.71289 11.8594,9.86718 11.8613,9.86914 -93.4121,80.36915 c -51.3765,44.20226 -93.9727,81.27367 -94.6582,82.38281 -0.6854,1.10914 -0.1744,8.01172 1.1348,15.33789 5.9194,33.12349 7.2315,28.72931 -12.3906,41.51367 -12.5431,8.17209 -46.8244,41.40985 -117.9336,114.34375 l -100.252,102.82422 1.6133,9.61914 c 0.8867,5.2914 2.2919,12.0889 3.123,15.10547 1.1386,4.13244 -4.3869,12.66629 -22.4082,34.61129 l -23.9179,29.127 10.8984,14.834 c 5.9934,8.1592 20.8794,28.3667 33.082,44.9043 12.2026,16.5377 22.7143,30.0684 23.3594,30.0684 0.6452,-10e-5 7.3491,-10.2237 14.8965,-22.7188 l 13.7227,-22.7188 12.0781,0 c 10.617,0 15.497,-2.345 40.3105,-19.3769 22.2071,-15.2429 37.9499,-29.5141 73.7852,-66.88674 l 45.5566,-47.50977 8.1699,23.02539 c 4.4935,12.66414 9.3718,22.88679 10.8418,22.7168 4.2304,-0.48938 36.0685,-38.48453 35.9766,-42.93359 -0.046,-2.20502 -1.7212,-11.65186 -3.7246,-20.99414 l -3.6426,-16.98633 8.4141,-7.65821 c 4.6276,-4.21225 9.6307,-7.69352 11.1191,-7.73632 1.4884,-0.0431 4.9452,7.73789 7.6817,17.29297 2.7364,9.55507 5.7621,17.37304 6.7226,17.37304 0.9605,0 7.5139,-5.11182 14.5645,-11.35937 l 12.8203,-11.35938 -5.2539,-23.39062 -5.252,-23.39063 10.2012,-8.08008 c 5.6114,-4.44441 10.73,-7.1491 11.373,-6.00976 0.643,1.13929 3.2905,11.0921 5.8848,22.11719 2.5944,11.02509 5.4662,20.85935 6.3809,21.85351 0.9146,0.99415 10.1603,-10.01553 20.5468,-24.46484 16.4887,-22.93823 26.8322,-33.11816 81.5196,-80.24024 75.668,-65.20029 77.334,-66.89342 77.334,-78.55078 0,-8.45236 0.6418,-9.0721 11.0859,-10.74219 9.3027,-1.48755 12.8464,-0.61845 22.0488,5.40625 32.9348,21.56192 39.1274,29.72002 79.834,105.20313 24.6128,45.63998 28.8025,49.84366 52.4844,52.64844 l 13.6211,1.61328 0,-11.06445 c 0,-16.04496 4.9221,-14.023 18.4824,7.58789 6.4362,10.25738 18.4636,24.52992 26.7266,31.71679 14.8324,12.90093 15.0108,13.22843 14.0078,25.83985 -0.9722,12.22297 -0.7503,12.70526 5.1582,11.16015 7.0355,-1.83982 13.4552,2.23301 11.5097,7.30274 -1.1481,2.99209 30.3875,35.17349 32.4317,33.0957 0.4378,-0.44502 9.3205,-23.53954 19.7402,-51.32031 16.5623,-44.15752 18.9453,-52.76064 18.9453,-68.4043 l 0,-17.89453 -13.3632,-11.26953 c -7.3501,-6.19767 -13.3653,-12.64984 -13.3653,-14.33789 0,-1.688 -4.4086,-7.58539 -9.7988,-13.10547 -8.7249,-8.93517 -10.1538,-9.55603 -13.0039,-5.6582 -2.782,3.80466 -3.6279,3.08401 -6.461,-5.5 -1.9518,-5.91421 -7.9967,-13.83595 -15.0625,-19.74219 -6.4909,-5.42579 -11.8007,-11.28481 -11.8007,-13.01953 0,-4.69009 -23.9532,-30.46094 -28.3125,-30.46094 -2.5867,0 -3.7598,-3.23666 -3.7598,-10.36328 l 0,-10.36328 -24.7246,-8.77735 c -13.5976,-4.82778 -26.1982,-9.91043 -28.002,-11.29492 -1.8038,-1.38448 -6.3556,-8.80386 -10.1152,-16.48828 -3.7596,-7.68437 -11.7064,-18.68605 -17.6602,-24.44727 -5.9538,-5.76127 -13.0419,-14.76441 -15.75,-20.00781 -2.708,-5.24335 -6.8144,-11.10425 -9.1269,-13.02344 -9.1517,-7.59521 -5.1389,-17.23437 17.1777,-41.26367 l 21.3809,-23.02148 0,-17.76367 c 0,-17.09374 0.4391,-18.27913 11.6386,-31.41602 6.4013,-7.50855 13.9188,-18.08177 16.7051,-23.49414 2.7864,-5.41237 31.6238,-37.28322 64.084,-70.82617 67.8441,-70.10714 101.7648,-113.25891 113.9903,-145.00781 4.2613,-11.06668 12.4805,-43.24191 18.2636,-71.50196 5.7831,-28.26011 12.9215,-61.70598 15.8633,-74.32226 4.8733,-20.900173 6.9459,-28.416284 1.9922,-28.085942 z"
         style="fill:#000000;fill-opacity:1" />
    </g>
  </g>
</svg>
